<svg width="853" height="206" viewBox="0 0 853 206" fill="none" xmlns="http://www.w3.org/2000/svg">
<g clip-path="url(#clip0_282_51)">
<path d="M625.354 52.7347V148.335C625.354 185.418 605.712 205.831 569.786 205.831H568.779C568.779 205.831 567.939 205.831 567.436 205.831C559.377 205.831 539.4 204.811 516.568 183.717C515.728 183.037 515.896 181.676 516.568 180.996L538.392 163.985C538.392 163.985 540.071 163.475 540.575 163.985C545.275 168.918 555.852 177.764 569.45 176.913C578.348 176.233 585.567 172.831 589.26 167.557C591.778 163.985 592.618 159.562 591.61 154.799C591.61 154.119 590.939 153.949 590.435 154.119C582.041 158.882 572.304 161.433 562.567 161.433C531.509 161.433 506.327 136.257 506.327 105.128C506.327 73.9982 531.509 48.8223 562.567 48.8223C572.472 48.8223 582.041 51.3739 590.435 56.307C590.939 56.6472 591.778 56.307 591.778 55.6266V52.3945C591.778 51.3739 592.45 50.6934 593.457 50.6934H623.004C624.011 50.6934 624.683 51.544 624.683 52.3945L625.354 52.7347ZM592.282 105.638C592.282 102.576 591.778 99.5143 590.603 96.6224C586.91 86.5861 578.851 79.7818 568.107 79.7818C553.837 79.7818 542.254 91.3491 542.254 105.638C542.254 119.927 553.166 130.984 567.268 131.494H567.436C567.436 131.494 567.771 131.494 568.107 131.494C582.377 131.494 592.282 119.927 592.282 105.638Z" fill="black"/>
<path d="M732.797 52.5642V157.01C732.797 158.031 732.126 158.711 731.119 158.711H701.404C700.397 158.711 699.725 158.031 699.725 157.01V154.118C699.725 154.118 698.886 152.928 698.382 153.438C690.995 158.541 683.608 160.412 676.893 160.412C662.12 160.412 651.04 151.567 650.704 151.397C649.865 150.716 649.025 150.036 648.354 149.355C637.441 138.298 635.595 129.283 635.595 113.463V52.7343C635.595 51.7136 636.434 51.0332 637.274 51.0332H669.003C670.01 51.0332 670.682 51.8837 670.682 52.7343V111.762C670.682 115.844 670.85 120.267 672.528 124.009C673.368 125.54 674.375 126.901 675.55 127.922C677.565 129.453 680.083 130.303 683.441 130.303C689.484 130.303 694.353 128.092 695.864 124.69C697.543 120.947 697.543 115.844 697.543 111.762V52.7343C697.543 51.7136 698.214 51.0332 699.221 51.0332H730.951C731.958 51.0332 732.63 51.8837 732.63 52.7343L732.797 52.5642Z" fill="black"/>
<path d="M853 105.637C853 108.699 852.665 112.441 852.161 115.674C852.161 116.524 851.322 117.034 850.482 117.034H775.943C774.6 117.034 773.761 118.565 774.432 119.586C778.965 127.411 787.191 132.344 796.257 132.344C803.979 132.344 811.198 128.942 816.235 122.308C816.57 121.797 817.242 121.627 817.913 121.627L846.453 126.901C847.628 127.071 848.132 128.261 847.628 129.282C846.957 130.643 846.117 132.344 845.614 133.195L845.11 134.045C844.606 134.726 844.271 135.576 843.767 136.427C843.095 137.447 842.424 138.298 841.92 139.148L841.584 139.659C841.584 139.659 841.249 140.169 840.913 140.509L840.577 140.849C840.577 140.849 839.738 141.87 839.402 142.21L839.066 142.55C839.066 142.55 837.723 143.911 837.052 144.592L836.716 144.932C836.716 144.932 835.877 145.783 835.373 146.293C835.373 146.293 834.366 147.313 833.862 147.824L833.358 148.334L832.687 147.824L833.19 148.504C833.19 148.504 831.68 149.865 830.84 150.375L830.169 150.886C829.329 151.566 828.322 152.247 827.483 152.757H827.147C826.139 153.607 824.964 154.288 823.957 154.798H823.621C823.621 154.798 823.118 155.309 822.782 155.309H822.614C822.614 155.309 821.607 155.989 821.271 156.159H820.935C819.928 156.84 818.921 157.18 818.081 157.52H817.913C817.913 157.52 816.738 158.03 816.067 158.2L815.395 158.541C815.395 158.541 814.052 159.051 813.213 159.221C813.213 159.221 811.702 159.731 810.694 159.901H810.023C808.344 160.412 806.833 160.752 805.154 161.092H804.483C802.804 161.432 801.125 161.603 799.446 161.773H798.775C797.768 161.773 796.928 161.773 796.089 161.773C795.249 161.773 794.41 161.773 793.403 161.773C793.235 161.773 793.067 161.773 792.731 161.773H792.563C792.563 161.773 791.22 161.773 790.717 161.773H790.549C790.549 161.773 790.213 161.773 790.045 161.773C789.038 161.773 788.366 161.603 787.527 161.432H787.023C787.023 161.432 785.68 161.092 785.009 160.922H784.337C784.337 160.922 783.162 160.582 782.491 160.412H782.323C782.323 160.412 781.987 160.412 781.819 160.242C780.98 160.072 780.14 159.731 779.469 159.561C778.629 159.391 777.958 159.051 777.118 158.711C776.951 158.711 776.783 158.711 776.615 158.541C776.615 158.541 775.44 158.03 774.936 157.86C774.936 157.86 774.6 157.69 774.432 157.52C773.761 157.18 772.921 156.84 772.25 156.499C772.25 156.499 770.907 155.819 770.067 155.309C770.067 155.309 769.732 155.138 769.564 154.968C769.564 154.968 768.557 154.288 768.053 153.948L767.381 153.607C767.381 153.607 766.038 152.757 765.367 152.247C758.652 147.654 752.776 141.7 748.579 134.726C748.243 134.215 747.907 133.535 747.571 133.024V132.684C747.571 132.684 746.732 131.494 746.564 130.983V130.643C746.564 130.643 746.228 130.303 746.061 130.133C745.053 127.921 744.046 125.54 743.207 123.158C742.703 121.797 742.367 120.607 742.199 119.586C742.031 118.735 741.696 117.715 741.528 116.864C741.024 114.143 740.688 111.251 740.521 108.359C740.521 107.338 740.521 106.488 740.521 105.467C740.521 104.446 740.521 103.596 740.521 102.575C740.688 97.6422 741.696 92.5389 743.374 87.7759C743.878 86.245 744.382 84.714 744.885 83.5232C745.221 82.8428 745.557 81.9923 745.893 81.3118C745.893 81.3118 746.061 80.9716 746.228 80.8015V80.2912C746.228 80.2912 746.564 79.951 746.732 79.7809C746.732 79.6108 746.9 79.4407 747.068 79.2706L747.571 78.42C747.571 78.42 748.411 77.0592 748.747 76.3787C752.944 69.4043 758.819 63.4506 765.535 58.8577C766.206 58.3474 766.878 58.0071 767.549 57.4968L768.221 57.1566C768.221 57.1566 769.228 56.4762 769.732 56.3061C769.732 56.3061 770.067 55.9658 770.235 55.9658C770.907 55.6256 771.746 55.2854 772.418 54.7751C773.089 54.4349 773.929 54.0947 774.6 53.7545C774.768 53.7545 774.936 53.7545 775.104 53.5843C775.104 53.5843 776.279 53.074 776.783 52.9039C776.783 52.9039 777.118 52.7338 777.286 52.5637C778.126 52.2235 778.797 52.0534 779.637 51.7132C780.476 51.5431 781.315 51.2028 781.987 51.0327C781.987 51.0327 782.323 51.0327 782.491 51.0327H782.658C782.658 51.0327 783.834 50.6925 784.505 50.5224H785.009C785.009 50.5224 787.023 50.0121 787.695 50.0121C787.695 50.0121 789.206 49.842 790.213 49.6719C790.381 49.6719 790.549 49.6719 790.717 49.6719H790.885C790.885 49.6719 792.228 49.6719 792.731 49.6719C792.731 49.6719 793.067 49.6719 793.403 49.6719C794.41 49.6719 795.249 49.6719 796.089 49.6719C796.928 49.6719 797.6 49.6719 798.607 49.6719H799.279C800.957 49.6719 802.636 50.0121 804.315 50.1822H804.987C806.665 50.5224 808.176 50.8626 809.855 51.2028H810.527C811.366 51.5431 812.205 51.8833 812.877 52.0534C812.877 52.0534 814.388 52.5637 815.059 52.7338C815.227 52.7338 815.563 52.7338 815.731 52.9039C816.402 53.074 816.906 53.4142 817.41 53.5843H817.745C818.585 54.0947 819.592 54.605 820.599 54.9452H820.767C820.767 54.9452 821.607 55.4555 822.11 55.7957L821.775 56.6463L822.278 55.9658C822.278 55.9658 822.782 56.3061 823.118 56.3061C824.125 56.8164 825.636 57.837 826.643 58.3474C827.65 59.0278 828.49 59.7082 829.497 60.3886C829.497 60.3886 829.833 60.7289 830.001 60.899C830.84 61.4093 831.512 62.0897 832.351 62.7701L832.855 63.1104C832.855 63.1104 834.03 64.131 834.533 64.6413C834.533 64.6413 835.373 65.662 835.877 66.1723L836.212 66.5125C836.212 66.5125 837.555 67.8734 838.227 68.5538L837.723 69.2342L838.395 68.7239L838.73 69.0641C838.73 69.0641 839.57 69.9146 839.906 70.425L840.241 70.9353C840.241 70.9353 841.081 72.126 841.584 72.6364C841.584 72.6364 842.256 73.657 842.592 74.1673L843.263 75.0179C843.263 75.0179 843.767 75.8684 844.103 76.2086L845.11 77.9097C847.292 81.6521 848.803 85.5645 850.146 89.6471C851.657 94.9204 852.497 100.194 852.497 105.637H853ZM819.76 91.3482C818.417 83.3531 809.351 77.2293 797.768 77.2293C787.359 77.2293 777.286 83.3531 775.775 91.3482C775.607 92.3688 776.447 93.3895 777.454 93.3895H817.913C818.921 93.3895 819.76 92.3688 819.592 91.3482H819.76Z" fill="black"/>
<path d="M82.765 128.772L79.7432 158.201C79.7432 159.051 78.9038 159.732 78.0644 159.732H1.6788C0.671521 159.732 0 158.881 0 158.031V18.8827C0 17.8621 0.839402 17.1816 1.6788 17.1816H34.0797C35.087 17.1816 35.7585 17.8621 35.7585 18.8827V125.2C35.7585 126.22 36.43 126.901 37.4373 126.901H81.0862C82.0935 126.901 82.9329 127.751 82.765 128.772Z" fill="black"/>
<path d="M205.989 52.3941V156.84C205.989 157.861 205.318 158.541 204.31 158.541H174.595C173.588 158.541 172.917 157.861 172.917 156.84V155.309C172.917 155.309 172.245 154.288 171.574 154.629C163.012 159.562 153.443 162.113 143.538 162.113C112.312 162.113 86.9619 136.767 86.9619 105.638C86.9619 74.5081 112.312 49.1621 143.538 49.1621C153.443 49.1621 163.012 51.7137 171.574 56.6468C172.077 56.987 172.917 56.6468 172.917 55.9664V52.7344C172.917 51.7137 173.588 51.0333 174.595 51.0333H204.31C205.318 51.0333 205.989 51.8838 205.989 52.7344V52.3941ZM172.917 105.468C172.917 91.1786 163.012 79.6113 148.742 79.6113C134.472 79.6113 122.888 91.1786 122.888 105.468C122.888 119.757 134.472 131.324 148.742 131.324C163.012 131.324 172.917 119.757 172.917 105.468Z" fill="black"/>
<path d="M346.337 158.371C346.337 158.371 345.833 158.371 345.666 158.371C324.345 158.201 305.374 145.783 296.477 126.221L249.302 24.3262C245.441 15.8208 248.967 5.61438 257.361 1.70191C265.755 -2.21056 275.827 1.3617 279.689 9.86706L326.863 111.931C330.388 119.756 337.607 124.349 346.169 124.519C354.899 124.519 361.95 120.097 365.643 112.442L379.913 83.3534C389.482 63.7911 409.628 52.2238 430.445 52.3939C451.934 52.9042 470.904 65.4922 479.634 85.3947L501.123 134.045C504.984 142.551 501.123 152.757 492.729 156.5C484.167 160.242 474.43 156.5 470.569 147.994L449.08 99.3435C445.554 91.5186 438.336 86.5855 429.942 86.4154C421.548 86.4154 413.993 90.6681 410.3 98.493L396.03 127.581C386.628 146.803 367.826 158.541 346.673 158.541L346.337 158.371Z" fill="#0166FF"/>
</g>
<defs>
<clipPath id="clip0_282_51">
<rect width="853" height="206" fill="white"/>
</clipPath>
</defs>
</svg>
